#N canvas 0 0 1350 664 10;
#X obj 190 10 cnv 15 562 45 empty empty 7\ _\ 8\ _\ 9\ _\ 4\ _\ 5\ _\ 6\ _\ 1\ _\ 2\ _\ 3\ _\ 0\ _\ .\ _\ /\ _\ *\ _\ -\ _\ +\ _\ E\ _\ T
7 32 0 14 #404040 #d1d1d1 0;
#X obj 14 85 key;
#X obj 97 85 keyup;
#X obj 25 170 s \$0-down;
#X obj 97 195 s \$0-up;
#X obj 206 282 bng 15 250 50 0 empty empty empty 17 7 0 10 #fcfcfc
#000000 #000000;
#X obj 120 252 r \$0-onoff;
#X obj 197 14 tgl 15 0 empty empty empty 17 7 0 10 #808080 #000000
#000000 1 1;
#X obj 15 61 s \$0-onoff;
#X text 212 13 ON/OFF;
#X obj 11 390 ==;
#X floatatom 11 412 5 0 0 0 - - -, f 5;
#X obj 11 435 moses 1;
#X msg 26 338 \$1;
#X obj 11 364 r \$0-key;
#X obj 14 195 s \$0-key;
#X obj 11 458 bng 15 250 50 0 empty empty empty 17 7 0 10 #fcfcfc #000000
#000000;
#X obj 109 170 s \$0-keyup;
#X obj 11 503 ==;
#X floatatom 11 525 5 0 0 0 - - -, f 5;
#X obj 13 548 moses 1;
#X obj 52 575 bng 15 250 50 0 empty empty empty 17 7 0 10 #fcfcfc #000000
#000000;
#X obj 11 477 r \$0-keyup;
#X msg 96 338 \$2;
#X msg 165 338 \$3;
#X msg 234 338 \$4;
#X msg 303 338 \$5;
#X msg 372 338 \$6;
#X msg 442 338 \$7;
#X msg 511 338 \$8;
#X msg 580 338 \$9;
#X msg 649 338 \$10;
#X msg 719 338 \$11;
#X msg 788 338 \$12;
#X msg 857 338 \$13;
#X msg 926 338 \$14;
#X msg 996 338 \$15;
#X obj 80 390 ==;
#X floatatom 80 412 5 0 0 0 - - -, f 5;
#X obj 80 435 moses 1;
#X obj 80 364 r \$0-key;
#X obj 80 458 bng 15 250 50 0 empty empty empty 17 7 0 10 #fcfcfc #000000
#000000;
#X obj 80 503 ==;
#X floatatom 80 525 5 0 0 0 - - -, f 5;
#X obj 82 548 moses 1;
#X obj 130 575 bng 15 250 50 0 empty empty empty 17 7 0 10 #fcfcfc
#000000 #000000;
#X obj 80 477 r \$0-keyup;
#X obj 151 391 ==;
#X floatatom 151 413 5 0 0 0 - - -, f 5;
#X obj 151 436 moses 1;
#X obj 151 365 r \$0-key;
#X obj 151 459 bng 15 250 50 0 empty empty empty 17 7 0 10 #fcfcfc
#000000 #000000;
#X obj 151 504 ==;
#X floatatom 151 526 5 0 0 0 - - -, f 5;
#X obj 153 549 moses 1;
#X obj 192 576 bng 15 250 50 0 empty empty empty 17 7 0 10 #fcfcfc
#000000 #000000;
#X obj 151 478 r \$0-keyup;
#X obj 219 393 ==;
#X floatatom 219 415 5 0 0 0 - - -, f 5;
#X obj 219 438 moses 1;
#X obj 219 367 r \$0-key;
#X obj 219 461 bng 15 250 50 0 empty empty empty 17 7 0 10 #fcfcfc
#000000 #000000;
#X obj 219 506 ==;
#X floatatom 219 528 5 0 0 0 - - -, f 5;
#X obj 221 551 moses 1;
#X obj 260 578 bng 15 250 50 0 empty empty empty 17 7 0 10 #fcfcfc
#000000 #000000;
#X obj 219 480 r \$0-keyup;
#X obj 293 393 ==;
#X floatatom 293 415 5 0 0 0 - - -, f 5;
#X obj 293 438 moses 1;
#X obj 293 367 r \$0-key;
#X obj 293 461 bng 15 250 50 0 empty empty empty 17 7 0 10 #fcfcfc
#000000 #000000;
#X obj 293 506 ==;
#X floatatom 293 528 5 0 0 0 - - -, f 5;
#X obj 295 551 moses 1;
#X obj 334 578 bng 15 250 50 0 empty empty empty 17 7 0 10 #fcfcfc
#000000 #000000;
#X obj 293 480 r \$0-keyup;
#X obj 362 389 ==;
#X floatatom 362 411 5 0 0 0 - - -, f 5;
#X obj 362 434 moses 1;
#X obj 362 363 r \$0-key;
#X obj 362 457 bng 15 250 50 0 empty empty empty 17 7 0 10 #fcfcfc
#000000 #000000;
#X obj 362 502 ==;
#X floatatom 362 524 5 0 0 0 - - -, f 5;
#X obj 364 547 moses 1;
#X obj 403 574 bng 15 250 50 0 empty empty empty 17 7 0 10 #fcfcfc
#000000 #000000;
#X obj 362 476 r \$0-keyup;
#X obj 427 392 ==;
#X floatatom 427 414 5 0 0 0 - - -, f 5;
#X obj 427 437 moses 1;
#X obj 427 366 r \$0-key;
#X obj 427 460 bng 15 250 50 0 empty empty empty 17 7 0 10 #fcfcfc
#000000 #000000;
#X obj 427 505 ==;
#X floatatom 427 527 5 0 0 0 - - -, f 5;
#X obj 429 550 moses 1;
#X obj 468 577 bng 15 250 50 0 empty empty empty 17 7 0 10 #fcfcfc
#000000 #000000;
#X obj 427 479 r \$0-keyup;
#X obj 500 393 ==;
#X floatatom 500 415 5 0 0 0 - - -, f 5;
#X obj 500 438 moses 1;
#X obj 500 367 r \$0-key;
#X obj 500 461 bng 15 250 50 0 empty empty empty 17 7 0 10 #fcfcfc
#000000 #000000;
#X obj 500 506 ==;
#X floatatom 500 528 5 0 0 0 - - -, f 5;
#X obj 502 551 moses 1;
#X obj 541 578 bng 15 250 50 0 empty empty empty 17 7 0 10 #fcfcfc
#000000 #000000;
#X obj 500 480 r \$0-keyup;
#X obj 574 393 ==;
#X floatatom 574 415 5 0 0 0 - - -, f 5;
#X obj 574 438 moses 1;
#X obj 574 367 r \$0-key;
#X obj 574 461 bng 15 250 50 0 empty empty empty 17 7 0 10 #fcfcfc
#000000 #000000;
#X obj 574 506 ==;
#X floatatom 574 528 5 0 0 0 - - -, f 5;
#X obj 576 551 moses 1;
#X obj 615 578 bng 15 250 50 0 empty empty empty 17 7 0 10 #fcfcfc
#000000 #000000;
#X obj 574 480 r \$0-keyup;
#X obj 643 389 ==;
#X floatatom 643 411 5 0 0 0 - - -, f 5;
#X obj 643 434 moses 1;
#X obj 643 363 r \$0-key;
#X obj 643 457 bng 15 250 50 0 empty empty empty 17 7 0 10 #fcfcfc
#000000 #000000;
#X obj 643 502 ==;
#X floatatom 643 524 5 0 0 0 - - -, f 5;
#X obj 645 547 moses 1;
#X obj 684 574 bng 15 250 50 0 empty empty empty 17 7 0 10 #fcfcfc
#000000 #000000;
#X obj 643 476 r \$0-keyup;
#X obj 708 392 ==;
#X floatatom 708 414 5 0 0 0 - - -, f 5;
#X obj 708 437 moses 1;
#X obj 708 366 r \$0-key;
#X obj 708 460 bng 15 250 50 0 empty empty empty 17 7 0 10 #fcfcfc
#000000 #000000;
#X obj 708 505 ==;
#X floatatom 708 527 5 0 0 0 - - -, f 5;
#X obj 710 550 moses 1;
#X obj 749 577 bng 15 250 50 0 empty empty empty 17 7 0 10 #fcfcfc
#000000 #000000;
#X obj 708 479 r \$0-keyup;
#X obj 778 395 ==;
#X floatatom 778 417 5 0 0 0 - - -, f 5;
#X obj 778 440 moses 1;
#X obj 778 369 r \$0-key;
#X obj 778 463 bng 15 250 50 0 empty empty empty 17 7 0 10 #fcfcfc
#000000 #000000;
#X obj 778 508 ==;
#X floatatom 778 530 5 0 0 0 - - -, f 5;
#X obj 780 553 moses 1;
#X obj 819 580 bng 15 250 50 0 empty empty empty 17 7 0 10 #fcfcfc
#000000 #000000;
#X obj 778 482 r \$0-keyup;
#X obj 852 395 ==;
#X floatatom 852 417 5 0 0 0 - - -, f 5;
#X obj 852 440 moses 1;
#X obj 852 369 r \$0-key;
#X obj 852 463 bng 15 250 50 0 empty empty empty 17 7 0 10 #fcfcfc
#000000 #000000;
#X obj 852 508 ==;
#X floatatom 852 530 5 0 0 0 - - -, f 5;
#X obj 854 553 moses 1;
#X obj 893 580 bng 15 250 50 0 empty empty empty 17 7 0 10 #fcfcfc
#000000 #000000;
#X obj 852 482 r \$0-keyup;
#X obj 921 391 ==;
#X floatatom 921 413 5 0 0 0 - - -, f 5;
#X obj 921 436 moses 1;
#X obj 921 365 r \$0-key;
#X obj 921 459 bng 15 250 50 0 empty empty empty 17 7 0 10 #fcfcfc
#000000 #000000;
#X obj 921 504 ==;
#X floatatom 921 526 5 0 0 0 - - -, f 5;
#X obj 923 549 moses 1;
#X obj 962 576 bng 15 250 50 0 empty empty empty 17 7 0 10 #fcfcfc
#000000 #000000;
#X obj 921 478 r \$0-keyup;
#X obj 986 394 ==;
#X floatatom 986 416 5 0 0 0 - - -, f 5;
#X obj 986 439 moses 1;
#X obj 986 368 r \$0-key;
#X obj 986 462 bng 15 250 50 0 empty empty empty 17 7 0 10 #fcfcfc
#000000 #000000;
#X obj 986 507 ==;
#X floatatom 986 529 5 0 0 0 - - -, f 5;
#X obj 988 552 moses 1;
#X obj 1027 579 bng 15 250 50 0 empty empty empty 17 7 0 10 #fcfcfc
#000000 #000000;
#X obj 986 481 r \$0-keyup;
#X obj 1053 395 ==;
#X floatatom 1053 417 5 0 0 0 - - -, f 5;
#X obj 1053 440 moses 1;
#X obj 1053 369 r \$0-key;
#X obj 1053 463 bng 15 250 50 0 empty empty empty 17 7 0 10 #fcfcfc
#000000 #000000;
#X obj 1053 508 ==;
#X floatatom 1053 530 5 0 0 0 - - -, f 5;
#X obj 1055 553 moses 1;
#X obj 1094 580 bng 15 250 50 0 empty empty empty 17 7 0 10 #fcfcfc
#000000 #000000;
#X obj 1053 482 r \$0-keyup;
#X msg 1063 339 \$16;
#X obj 97 127 spigot;
#X obj 15 131 spigot;
#X obj 186 176 outlet;
#X obj 199 218 outlet;
#X obj 232 175 outlet;
#X obj 245 240 outlet;
#X obj 276 175 outlet;
#X obj 291 261 outlet;
#X obj 323 176 outlet;
#X obj 334 218 outlet;
#X obj 370 175 outlet;
#X obj 385 240 outlet;
#X obj 417 175 outlet;
#X obj 431 263 outlet;
#X obj 465 176 outlet;
#X obj 481 221 outlet;
#X obj 187 156 r \$0-7;
#X obj 201 198 r \$0-7up;
#X obj 233 155 r \$0-8;
#X obj 246 220 r \$0-8up;
#X obj 277 155 r \$0-9;
#X obj 292 241 r \$0-9up;
#X obj 324 156 r \$0-4;
#X obj 335 198 r \$0-4up;
#X obj 371 155 r \$0-5;
#X obj 386 220 r \$0-5up;
#X obj 418 155 r \$0-6;
#X obj 432 243 r \$0-6up;
#X obj 466 156 r \$0-1;
#X obj 482 201 r \$0-1up;
#X obj 512 175 outlet;
#X obj 529 242 outlet;
#X obj 559 173 outlet;
#X obj 576 265 outlet;
#X obj 607 175 outlet;
#X obj 620 221 outlet;
#X obj 656 174 outlet;
#X obj 671 244 outlet;
#X obj 710 175 outlet;
#X obj 727 265 outlet;
#X obj 758 174 outlet;
#X obj 776 222 outlet;
#X obj 805 174 outlet;
#X obj 825 244 outlet;
#X obj 513 155 r \$0-2;
#X obj 531 222 r \$0-2up;
#X obj 560 153 r \$0-3;
#X obj 577 245 r \$0-3up;
#X obj 608 155 r \$0-0;
#X obj 621 201 r \$0-0up;
#X obj 657 154 r \$0-do;
#X obj 672 224 r \$0-doup;
#X obj 711 155 r \$0-/;
#X obj 728 245 r \$0-/up;
#X obj 759 154 r \$0-*;
#X obj 777 201 r \$0-*up;
#X obj 806 154 r \$0--;
#X obj 826 224 r \$0--up;
#X obj 854 175 outlet;
#X obj 876 271 outlet;
#X obj 901 175 outlet;
#X obj 915 223 outlet;
#X obj 855 155 r \$0-+;
#X obj 877 250 r \$0-+up;
#X obj 902 155 r \$0-ent;
#X obj 916 203 r \$0-entup;
#X obj 13 595 s \$0-*;
#X obj 13 620 s \$0-*up;
#X obj 82 595 s \$0-+;
#X obj 82 620 s \$0-+up;
#X obj 153 621 s \$0--up;
#X obj 153 596 s \$0--;
#X obj 221 598 s \$0-do;
#X obj 221 623 s \$0-doup;
#X obj 295 598 s \$0-/;
#X obj 294 623 s \$0-/up;
#X obj 364 594 s \$0-0;
#X obj 364 619 s \$0-0up;
#X obj 429 597 s \$0-1;
#X obj 429 622 s \$0-1up;
#X obj 502 598 s \$0-2;
#X obj 501 623 s \$0-2up;
#X obj 576 598 s \$0-3;
#X obj 576 623 s \$0-3up;
#X obj 645 594 s \$0-4;
#X obj 645 619 s \$0-4up;
#X obj 710 597 s \$0-5;
#X obj 710 622 s \$0-5up;
#X obj 780 600 s \$0-6;
#X obj 780 625 s \$0-6up;
#X obj 854 600 s \$0-7;
#X obj 854 625 s \$0-7up;
#X obj 925 596 s \$0-8;
#X obj 923 621 s \$0-8up;
#X obj 989 599 s \$0-9;
#X obj 988 624 s \$0-9up;
#X obj 1055 600 s \$0-ent;
#X obj 1054 626 s \$0-entup;
#X obj 665 14 cnv 15 81 18 empty empty NUMPADFUN 2 7 0 14 #101010 #d1d1d1
0;
#X obj 228 305 42 43 45 46 47 48 49 50 51 52 53 54 55 56 57 10 9;
#X obj 1122 393 ==;
#X floatatom 1122 415 5 0 0 0 - - -, f 5;
#X obj 1122 438 moses 1;
#X obj 1122 367 r \$0-key;
#X obj 1122 461 bng 15 250 50 0 empty empty empty 17 7 0 10 #fcfcfc
#000000 #000000;
#X obj 1122 506 ==;
#X floatatom 1122 528 5 0 0 0 - - -, f 5;
#X obj 1124 551 moses 1;
#X obj 1163 578 bng 15 250 50 0 empty empty empty 17 7 0 10 #fcfcfc
#000000 #000000;
#X obj 1122 480 r \$0-keyup;
#X msg 1132 337 \$17;
#X obj 959 176 outlet;
#X obj 981 272 outlet;
#X obj 1124 598 s \$0-tab;
#X obj 1123 624 s \$0-tabup;
#X obj 960 156 r \$0-tab;
#X obj 982 251 r \$0-tabup;
#X connect 1 0 189 0;
#X connect 2 0 188 0;
#X connect 5 0 287 0;
#X connect 6 0 5 0;
#X connect 7 0 8 0;
#X connect 7 0 188 1;
#X connect 7 0 189 1;
#X connect 10 0 11 0;
#X connect 11 0 12 0;
#X connect 12 1 16 0;
#X connect 13 0 10 1;
#X connect 13 0 18 1;
#X connect 14 0 10 0;
#X connect 16 0 254 0;
#X connect 18 0 19 0;
#X connect 19 0 20 0;
#X connect 20 1 21 0;
#X connect 21 0 255 0;
#X connect 22 0 18 0;
#X connect 23 0 37 1;
#X connect 23 0 42 1;
#X connect 24 0 47 1;
#X connect 24 0 52 1;
#X connect 25 0 57 1;
#X connect 25 0 62 1;
#X connect 26 0 67 1;
#X connect 26 0 72 1;
#X connect 27 0 77 1;
#X connect 27 0 82 1;
#X connect 28 0 87 1;
#X connect 28 0 92 1;
#X connect 29 0 97 1;
#X connect 29 0 102 1;
#X connect 30 0 107 1;
#X connect 30 0 112 1;
#X connect 31 0 117 1;
#X connect 31 0 122 1;
#X connect 32 0 127 1;
#X connect 32 0 132 1;
#X connect 33 0 137 1;
#X connect 33 0 142 1;
#X connect 34 0 147 1;
#X connect 34 0 152 1;
#X connect 35 0 157 1;
#X connect 35 0 162 1;
#X connect 36 0 167 1;
#X connect 36 0 172 1;
#X connect 37 0 38 0;
#X connect 38 0 39 0;
#X connect 39 1 41 0;
#X connect 40 0 37 0;
#X connect 41 0 256 0;
#X connect 42 0 43 0;
#X connect 43 0 44 0;
#X connect 44 1 45 0;
#X connect 45 0 257 0;
#X connect 46 0 42 0;
#X connect 47 0 48 0;
#X connect 48 0 49 0;
#X connect 49 1 51 0;
#X connect 50 0 47 0;
#X connect 51 0 259 0;
#X connect 52 0 53 0;
#X connect 53 0 54 0;
#X connect 54 1 55 0;
#X connect 55 0 258 0;
#X connect 56 0 52 0;
#X connect 57 0 58 0;
#X connect 58 0 59 0;
#X connect 59 1 61 0;
#X connect 60 0 57 0;
#X connect 61 0 260 0;
#X connect 62 0 63 0;
#X connect 63 0 64 0;
#X connect 64 1 65 0;
#X connect 65 0 261 0;
#X connect 66 0 62 0;
#X connect 67 0 68 0;
#X connect 68 0 69 0;
#X connect 69 1 71 0;
#X connect 70 0 67 0;
#X connect 71 0 262 0;
#X connect 72 0 73 0;
#X connect 73 0 74 0;
#X connect 74 1 75 0;
#X connect 75 0 263 0;
#X connect 76 0 72 0;
#X connect 77 0 78 0;
#X connect 78 0 79 0;
#X connect 79 1 81 0;
#X connect 80 0 77 0;
#X connect 81 0 264 0;
#X connect 82 0 83 0;
#X connect 83 0 84 0;
#X connect 84 1 85 0;
#X connect 85 0 265 0;
#X connect 86 0 82 0;
#X connect 87 0 88 0;
#X connect 88 0 89 0;
#X connect 89 1 91 0;
#X connect 90 0 87 0;
#X connect 91 0 266 0;
#X connect 92 0 93 0;
#X connect 93 0 94 0;
#X connect 94 1 95 0;
#X connect 95 0 267 0;
#X connect 96 0 92 0;
#X connect 97 0 98 0;
#X connect 98 0 99 0;
#X connect 99 1 101 0;
#X connect 100 0 97 0;
#X connect 101 0 268 0;
#X connect 102 0 103 0;
#X connect 103 0 104 0;
#X connect 104 1 105 0;
#X connect 105 0 269 0;
#X connect 106 0 102 0;
#X connect 107 0 108 0;
#X connect 108 0 109 0;
#X connect 109 1 111 0;
#X connect 110 0 107 0;
#X connect 111 0 270 0;
#X connect 112 0 113 0;
#X connect 113 0 114 0;
#X connect 114 1 115 0;
#X connect 115 0 271 0;
#X connect 116 0 112 0;
#X connect 117 0 118 0;
#X connect 118 0 119 0;
#X connect 119 1 121 0;
#X connect 120 0 117 0;
#X connect 121 0 272 0;
#X connect 122 0 123 0;
#X connect 123 0 124 0;
#X connect 124 1 125 0;
#X connect 125 0 273 0;
#X connect 126 0 122 0;
#X connect 127 0 128 0;
#X connect 128 0 129 0;
#X connect 129 1 131 0;
#X connect 130 0 127 0;
#X connect 131 0 274 0;
#X connect 132 0 133 0;
#X connect 133 0 134 0;
#X connect 134 1 135 0;
#X connect 135 0 275 0;
#X connect 136 0 132 0;
#X connect 137 0 138 0;
#X connect 138 0 139 0;
#X connect 139 1 141 0;
#X connect 140 0 137 0;
#X connect 141 0 276 0;
#X connect 142 0 143 0;
#X connect 143 0 144 0;
#X connect 144 1 145 0;
#X connect 145 0 277 0;
#X connect 146 0 142 0;
#X connect 147 0 148 0;
#X connect 148 0 149 0;
#X connect 149 1 151 0;
#X connect 150 0 147 0;
#X connect 151 0 278 0;
#X connect 152 0 153 0;
#X connect 153 0 154 0;
#X connect 154 1 155 0;
#X connect 155 0 279 0;
#X connect 156 0 152 0;
#X connect 157 0 158 0;
#X connect 158 0 159 0;
#X connect 159 1 161 0;
#X connect 160 0 157 0;
#X connect 161 0 280 0;
#X connect 162 0 163 0;
#X connect 163 0 164 0;
#X connect 164 1 165 0;
#X connect 165 0 281 0;
#X connect 166 0 162 0;
#X connect 167 0 168 0;
#X connect 168 0 169 0;
#X connect 169 1 171 0;
#X connect 170 0 167 0;
#X connect 171 0 282 0;
#X connect 172 0 173 0;
#X connect 173 0 174 0;
#X connect 174 1 175 0;
#X connect 175 0 283 0;
#X connect 176 0 172 0;
#X connect 177 0 178 0;
#X connect 178 0 179 0;
#X connect 179 1 181 0;
#X connect 180 0 177 0;
#X connect 181 0 284 0;
#X connect 182 0 183 0;
#X connect 183 0 184 0;
#X connect 184 1 185 0;
#X connect 185 0 285 0;
#X connect 186 0 182 0;
#X connect 187 0 177 1;
#X connect 187 0 182 1;
#X connect 188 0 17 0;
#X connect 188 0 4 0;
#X connect 189 0 3 0;
#X connect 189 0 15 0;
#X connect 204 0 190 0;
#X connect 205 0 191 0;
#X connect 206 0 192 0;
#X connect 207 0 193 0;
#X connect 208 0 194 0;
#X connect 209 0 195 0;
#X connect 210 0 196 0;
#X connect 211 0 197 0;
#X connect 212 0 198 0;
#X connect 213 0 199 0;
#X connect 214 0 200 0;
#X connect 215 0 201 0;
#X connect 216 0 202 0;
#X connect 217 0 203 0;
#X connect 232 0 218 0;
#X connect 233 0 219 0;
#X connect 234 0 220 0;
#X connect 235 0 221 0;
#X connect 236 0 222 0;
#X connect 237 0 223 0;
#X connect 238 0 224 0;
#X connect 239 0 225 0;
#X connect 240 0 226 0;
#X connect 241 0 227 0;
#X connect 242 0 228 0;
#X connect 243 0 229 0;
#X connect 244 0 230 0;
#X connect 245 0 231 0;
#X connect 250 0 246 0;
#X connect 251 0 247 0;
#X connect 252 0 248 0;
#X connect 253 0 249 0;
#X connect 287 0 13 0;
#X connect 287 0 23 0;
#X connect 287 0 24 0;
#X connect 287 0 25 0;
#X connect 287 0 26 0;
#X connect 287 0 36 0;
#X connect 287 0 35 0;
#X connect 287 0 34 0;
#X connect 287 0 33 0;
#X connect 287 0 32 0;
#X connect 287 0 31 0;
#X connect 287 0 30 0;
#X connect 287 0 29 0;
#X connect 287 0 28 0;
#X connect 287 0 27 0;
#X connect 287 0 187 0;
#X connect 287 0 298 0;
#X connect 288 0 289 0;
#X connect 289 0 290 0;
#X connect 290 1 292 0;
#X connect 291 0 288 0;
#X connect 292 0 301 0;
#X connect 293 0 294 0;
#X connect 294 0 295 0;
#X connect 295 1 296 0;
#X connect 296 0 302 0;
#X connect 297 0 293 0;
#X connect 298 0 288 1;
#X connect 298 0 293 1;
#X connect 303 0 299 0;
#X connect 304 0 300 0;
#X coords 0 -1 1 1 564 52 2 189 9;
